<?xml version="1.0" encoding="UTF-8" standalone="no"?>
<svg
   xmlns:dc="http://purl.org/dc/elements/1.1/"
   xmlns:cc="http://creativecommons.org/ns#"
   xmlns:rdf="http://www.w3.org/1999/02/22-rdf-syntax-ns#"
   xmlns:svg="http://www.w3.org/2000/svg"
   xmlns="http://www.w3.org/2000/svg"
   version="1.1"
   id="svg28"
   xml:space="preserve"
   width="288.25067"
   height="122.26933"
   viewBox="0 0 288.25067 122.26933"><metadata
     id="metadata34"><rdf:RDF><cc:Work
         rdf:about=""><dc:format>image/svg+xml</dc:format><dc:type
           rdf:resource="http://purl.org/dc/dcmitype/StillImage" /><dc:title></dc:title></cc:Work></rdf:RDF></metadata><defs
     id="defs32" /><g
     id="g36"
     transform="matrix(1.3333333,0,0,-1.3333333,0,122.26933)"><g
       id="g38"
       transform="translate(32.56,51.27)"><g
         id="g40"><g
           id="g42"><g
             id="g44"><g
               id="g46"><path
                 d="M 12.45346,0 C 12.45346,6.87794 6.87794,12.45346 0,12.45346 -6.87794,12.45346 -12.45346,6.87794 -12.45346,0 c 0,-6.87794 5.57552,-12.45346 12.45346,-12.45346 6.87794,0 12.45346,5.57552 12.45346,12.45346 z"
                 style="fill:#f9f9f9;fill-opacity:1;fill-rule:nonzero;stroke:#000000;stroke-width:0.79701;stroke-linecap:butt;stroke-linejoin:miter;stroke-miterlimit:10;stroke-dasharray:none;stroke-opacity:1"
                 id="path48" /></g><g
               id="g50"
               transform="translate(-4.458,-1.176)"><g
                 id="g52"><g
                   id="g54"
                   transform="translate(-28.102,-50.094)"><text
                     transform="matrix(1,0,0,-1,28.102,50.094)"
                     style="font-variant:normal;font-weight:normal;font-size:9.9626px;font-family:CMMI10;-inkscape-font-specification:CMMI10;writing-mode:lr-tb;fill:#000000;fill-opacity:1;fill-rule:nonzero;stroke:none"
                     id="text58"><tspan
                       x="0"
                       y="0"
                       id="tspan56">q</tspan></text><text
                     transform="matrix(1,0,0,-1,32.549,48.599)"
                     style="font-variant:normal;font-weight:normal;font-size:6.9738px;font-family:CMR7;-inkscape-font-specification:CMR7;writing-mode:lr-tb;fill:#000000;fill-opacity:1;fill-rule:nonzero;stroke:none"
                     id="text62"><tspan
                       x="0"
                       y="0"
                       id="tspan60">0</tspan></text><g
                     id="g64"
                     transform="translate(28.102,50.094)" /></g></g><g
                 id="g66"
                 transform="translate(4.458,1.176)" /></g></g><g
             id="g68"><path
               d="m -25.7205,0 h 11.87226"
               style="fill:none;stroke:#000000;stroke-width:0.3985;stroke-linecap:butt;stroke-linejoin:miter;stroke-miterlimit:10;stroke-dasharray:none;stroke-opacity:1"
               id="path70" /><g
               id="g72"
               transform="translate(-13.84824)"><g
                 id="g74"><path
                   d="m 0.797,0 c -0.99625,0.19925 -1.99251,0.59775 -3.18802,1.29512 1.19551,-0.89662 1.19551,-1.69362 0,-2.59024 C -1.19551,-0.59775 -0.19925,-0.19925 0.797,0 Z"
                   style="fill:#000000;fill-opacity:1;fill-rule:nonzero;stroke:#000000;stroke-width:0.3985;stroke-linecap:butt;stroke-linejoin:round;stroke-miterlimit:10;stroke-dasharray:none;stroke-opacity:1"
                   id="path76" /></g></g><g
               id="g78"><g
                 id="g80"
                 transform="translate(-29.24)"><g
                   id="g82" /><g
                   id="g84"
                   transform="translate(29.24)" /></g></g></g><g
             id="g86"><g
               id="g88"><path
                 d="m 97.49393,0 c 0,6.87794 -5.57552,12.45346 -12.45348,12.45346 C 78.1625,12.45346 72.58698,6.87794 72.58698,0 c 0,-6.87794 5.57552,-12.45346 12.45347,-12.45346 6.87796,0 12.45348,5.57552 12.45348,12.45346 z"
                 style="fill:#f9f9f9;fill-opacity:1;fill-rule:nonzero;stroke:#000000;stroke-width:0.79701;stroke-linecap:butt;stroke-linejoin:miter;stroke-miterlimit:10;stroke-dasharray:none;stroke-opacity:1"
                 id="path90" /></g><g
               id="g92"
               transform="translate(80.581,-1.176)"><g
                 id="g94"><g
                   id="g96"
                   transform="translate(-113.141,-50.094)"><text
                     transform="matrix(1,0,0,-1,113.141,50.094)"
                     style="font-variant:normal;font-weight:normal;font-size:9.9626px;font-family:CMMI10;-inkscape-font-specification:CMMI10;writing-mode:lr-tb;fill:#000000;fill-opacity:1;fill-rule:nonzero;stroke:none"
                     id="text100"><tspan
                       x="0"
                       y="0"
                       id="tspan98">q</tspan></text><text
                     transform="matrix(1,0,0,-1,117.589,48.599)"
                     style="font-variant:normal;font-weight:normal;font-size:6.9738px;font-family:CMR7;-inkscape-font-specification:CMR7;writing-mode:lr-tb;fill:#000000;fill-opacity:1;fill-rule:nonzero;stroke:none"
                     id="text104"><tspan
                       x="0"
                       y="0"
                       id="tspan102">1</tspan></text><g
                     id="g106"
                     transform="translate(113.141,50.094)" /></g></g><g
                 id="g108"
                 transform="translate(-80.581,1.176)" /></g></g><g
             id="g110"><g
               id="g112"><g
                 id="g114"><path
                   d="m 182.5344,0 c 0,6.87794 -5.57554,12.45346 -12.45348,12.45346 -6.87796,0 -12.45348,-5.57552 -12.45348,-12.45346 0,-6.87794 5.57552,-12.45346 12.45348,-12.45346 6.87794,0 12.45348,5.57552 12.45348,12.45346 z"
                   style="fill:#f9f9f9;fill-opacity:1;fill-rule:nonzero;stroke:#000000;stroke-width:2.19182;stroke-linecap:butt;stroke-linejoin:miter;stroke-miterlimit:10;stroke-dasharray:none;stroke-opacity:1"
                   id="path116" /><g
                   id="g118"><path
                     d="m 182.5344,0 c 0,6.87794 -5.57554,12.45346 -12.45348,12.45346 -6.87796,0 -12.45348,-5.57552 -12.45348,-12.45346 0,-6.87794 5.57552,-12.45346 12.45348,-12.45346 6.87794,0 12.45348,5.57552 12.45348,12.45346 z"
                     style="fill:none;stroke:#ffffff;stroke-width:0.59776;stroke-linecap:butt;stroke-linejoin:miter;stroke-miterlimit:10;stroke-dasharray:none;stroke-opacity:1"
                     id="path120" /></g></g></g><g
               id="g122"
               transform="translate(165.621,-1.176)"><g
                 id="g124"><g
                   id="g126"
                   transform="translate(-198.181,-50.094)"><text
                     transform="matrix(1,0,0,-1,198.181,50.094)"
                     style="font-variant:normal;font-weight:normal;font-size:9.9626px;font-family:CMMI10;-inkscape-font-specification:CMMI10;writing-mode:lr-tb;fill:#000000;fill-opacity:1;fill-rule:nonzero;stroke:none"
                     id="text130"><tspan
                       x="0"
                       y="0"
                       id="tspan128">q</tspan></text><text
                     transform="matrix(1,0,0,-1,202.628,48.599)"
                     style="font-variant:normal;font-weight:normal;font-size:6.9738px;font-family:CMR7;-inkscape-font-specification:CMR7;writing-mode:lr-tb;fill:#000000;fill-opacity:1;fill-rule:nonzero;stroke:none"
                     id="text134"><tspan
                       x="0"
                       y="0"
                       id="tspan132">2</tspan></text><g
                     id="g136"
                     transform="translate(198.181,50.094)" /></g></g><g
                 id="g138"
                 transform="translate(-165.621,1.176)" /></g></g><g
             id="g140"><path
               d="M -3.3328,12.43837 C -8.71542,32.52585 8.71542,32.52585 3.8497,14.36679"
               style="fill:none;stroke:#000000;stroke-width:0.3985;stroke-linecap:butt;stroke-linejoin:miter;stroke-miterlimit:10;stroke-dasharray:none;stroke-opacity:1"
               id="path142" /><g
               id="g144"
               transform="matrix(-0.25932,-0.96782,0.96782,-0.25932,3.84972,14.36679)"><g
                 id="g146"><path
                   d="m 0.797,0 c -0.99625,0.19925 -1.99251,0.59775 -3.18802,1.29512 1.19551,-0.89662 1.19551,-1.69362 0,-2.59024 C -1.19551,-0.59775 -0.19925,-0.19925 0.797,0 Z"
                   style="fill:#000000;fill-opacity:1;fill-rule:nonzero;stroke:#000000;stroke-width:0.3985;stroke-linecap:butt;stroke-linejoin:round;stroke-miterlimit:10;stroke-dasharray:none;stroke-opacity:1"
                   id="path148" /></g></g><g
               id="g150"><g
                 id="g152"
                 transform="translate(-2.615,31.023)"><g
                   id="g154"><g
                     id="g156"
                     transform="translate(-29.945,-82.293)"><text
                       transform="matrix(1,0,0,-1,29.945,82.293)"
                       style="font-variant:normal;font-weight:normal;font-size:9.9626px;font-family:CMTT10;-inkscape-font-specification:CMTT10;writing-mode:lr-tb;fill:#000000;fill-opacity:1;fill-rule:nonzero;stroke:none"
                       id="text160"><tspan
                         x="0"
                         y="0"
                         id="tspan158">0</tspan></text><g
                       id="g162"
                       transform="translate(29.945,82.293)" /></g></g><g
                   id="g164"
                   transform="translate(2.615,-31.023)" /></g></g></g><g
             id="g166"><path
               d="M 11.16545,6.44658 C 32.34409,18.67403 52.69637,18.67403 73.00948,6.94627"
               style="fill:none;stroke:#000000;stroke-width:0.3985;stroke-linecap:butt;stroke-linejoin:miter;stroke-miterlimit:10;stroke-dasharray:none;stroke-opacity:1"
               id="path168" /><g
               id="g170"
               transform="matrix(0.86877,-0.50159,0.50159,0.86877,73.00948,6.94629)"><g
                 id="g172"><path
                   d="m 0.797,0 c -0.99625,0.19925 -1.99251,0.59775 -3.18802,1.29512 1.19551,-0.89662 1.19551,-1.69362 0,-2.59024 C -1.19551,-0.59775 -0.19925,-0.19925 0.797,0 Z"
                   style="fill:#000000;fill-opacity:1;fill-rule:nonzero;stroke:#000000;stroke-width:0.3985;stroke-linecap:butt;stroke-linejoin:round;stroke-miterlimit:10;stroke-dasharray:none;stroke-opacity:1"
                   id="path174" /></g></g><g
               id="g176"><g
                 id="g178"
                 transform="translate(39.905,19.137)"><g
                   id="g180"><g
                     id="g182"
                     transform="translate(-72.465,-70.407)"><text
                       transform="matrix(1,0,0,-1,72.465,70.407)"
                       style="font-variant:normal;font-weight:normal;font-size:9.9626px;font-family:CMTT10;-inkscape-font-specification:CMTT10;writing-mode:lr-tb;fill:#000000;fill-opacity:1;fill-rule:nonzero;stroke:none"
                       id="text186"><tspan
                         x="0"
                         y="0"
                         id="tspan184">1</tspan></text><g
                       id="g188"
                       transform="translate(72.465,70.407)" /></g></g><g
                   id="g190"
                   transform="translate(-39.905,-19.137)" /></g></g></g><g
             id="g192"><path
               d="M 73.875,-6.44658 C 52.69637,-18.67403 32.34409,-18.67403 12.03098,-6.94627"
               style="fill:none;stroke:#000000;stroke-width:0.3985;stroke-linecap:butt;stroke-linejoin:miter;stroke-miterlimit:10;stroke-dasharray:none;stroke-opacity:1"
               id="path194" /><g
               id="g196"
               transform="matrix(-0.86877,0.50159,-0.50159,-0.86877,12.03098,-6.94629)"><g
                 id="g198"><path
                   d="m 0.797,0 c -0.99625,0.19925 -1.99251,0.59775 -3.18802,1.29512 1.19551,-0.89662 1.19551,-1.69362 0,-2.59024 C -1.19551,-0.59775 -0.19925,-0.19925 0.797,0 Z"
                   style="fill:#000000;fill-opacity:1;fill-rule:nonzero;stroke:#000000;stroke-width:0.3985;stroke-linecap:butt;stroke-linejoin:round;stroke-miterlimit:10;stroke-dasharray:none;stroke-opacity:1"
                   id="path200" /></g></g><g
               id="g202"><g
                 id="g204"
                 transform="translate(39.905,-12.097)"><g
                   id="g206"><g
                     id="g208"
                     transform="translate(-72.465,-39.173)"><text
                       transform="matrix(1,0,0,-1,72.465,39.173)"
                       style="font-variant:normal;font-weight:normal;font-size:9.9626px;font-family:CMTT10;-inkscape-font-specification:CMTT10;writing-mode:lr-tb;fill:#000000;fill-opacity:1;fill-rule:nonzero;stroke:none"
                       id="text212"><tspan
                         x="0"
                         y="0"
                         id="tspan210">1</tspan></text><g
                       id="g214"
                       transform="translate(72.465,39.173)" /></g></g><g
                   id="g216"
                   transform="translate(-39.905,12.097)" /></g></g></g><g
             id="g218"><path
               d="m 96.20592,6.44658 c 21.06172,12.22731 41.32982,12.2762 61.58435,0.64686"
               style="fill:none;stroke:#000000;stroke-width:0.3985;stroke-linecap:butt;stroke-linejoin:miter;stroke-miterlimit:10;stroke-dasharray:none;stroke-opacity:1"
               id="path220" /><g
               id="g222"
               transform="matrix(0.86877,-0.49883,0.49883,0.86877,157.79027,7.09344)"><g
                 id="g224"><path
                   d="m 0.797,0 c -0.99625,0.19925 -1.99251,0.59775 -3.18802,1.29512 1.19551,-0.89662 1.19551,-1.69362 0,-2.59024 C -1.19551,-0.59775 -0.19925,-0.19925 0.797,0 Z"
                   style="fill:#000000;fill-opacity:1;fill-rule:nonzero;stroke:#000000;stroke-width:0.3985;stroke-linecap:butt;stroke-linejoin:round;stroke-miterlimit:10;stroke-dasharray:none;stroke-opacity:1"
                   id="path226" /></g></g><g
               id="g228"><g
                 id="g230"
                 transform="translate(124.793,19.174)"><g
                   id="g232"><g
                     id="g234"
                     transform="translate(-157.353,-70.444)"><text
                       transform="matrix(1,0,0,-1,157.353,70.444)"
                       style="font-variant:normal;font-weight:normal;font-size:9.9626px;font-family:CMTT10;-inkscape-font-specification:CMTT10;writing-mode:lr-tb;fill:#000000;fill-opacity:1;fill-rule:nonzero;stroke:none"
                       id="text238"><tspan
                         x="0"
                         y="0"
                         id="tspan236">0</tspan></text><g
                       id="g240"
                       transform="translate(157.353,70.444)" /></g></g><g
                   id="g242"
                   transform="translate(-124.793,-19.174)" /></g></g></g><g
             id="g244"><path
               d="M 160.78123,-9.29906 C 118.89427,-51.07117 50.86041,-50.97469 9.79439,-9.7957"
               style="fill:none;stroke:#000000;stroke-width:0.3985;stroke-linecap:butt;stroke-linejoin:miter;stroke-miterlimit:10;stroke-dasharray:none;stroke-opacity:1"
               id="path246" /><g
               id="g248"
               transform="matrix(-0.70872,0.71065,-0.71065,-0.70872,9.79439,-9.79572)"><g
                 id="g250"><path
                   d="m 0.797,0 c -0.99625,0.19925 -1.99251,0.59775 -3.18802,1.29512 1.19551,-0.89662 1.19551,-1.69362 0,-2.59024 C -1.19551,-0.59775 -0.19925,-0.19925 0.797,0 Z"
                   style="fill:#000000;fill-opacity:1;fill-rule:nonzero;stroke:#000000;stroke-width:0.3985;stroke-linecap:butt;stroke-linejoin:round;stroke-miterlimit:10;stroke-dasharray:none;stroke-opacity:1"
                   id="path252" /></g></g><g
               id="g254"><g
                 id="g256"
                 transform="translate(78.277,-35.108)"><g
                   id="g258"><g
                     id="g260"
                     transform="translate(-110.837,-16.162)"><text
                       transform="matrix(1,0,0,-1,110.837,16.162)"
                       style="font-variant:normal;font-weight:normal;font-size:9.9626px;font-family:CMTT10;-inkscape-font-specification:CMTT10;writing-mode:lr-tb;fill:#000000;fill-opacity:1;fill-rule:nonzero;stroke:none"
                       id="text264"><tspan
                         x="0"
                         y="0"
                         id="tspan262">0</tspan></text><text
                       transform="matrix(1,0,0,-1,116.067,16.162)"
                       style="font-variant:normal;font-weight:normal;font-size:9.9626px;font-family:CMR10;-inkscape-font-specification:CMR10;writing-mode:lr-tb;fill:#000000;fill-opacity:1;fill-rule:nonzero;stroke:none"
                       id="text268"><tspan
                         x="0"
                         y="0"
                         id="tspan266">,</tspan></text><text
                       transform="matrix(1,0,0,-1,118.835,16.162)"
                       style="font-variant:normal;font-weight:normal;font-size:9.9626px;font-family:CMTT10;-inkscape-font-specification:CMTT10;writing-mode:lr-tb;fill:#000000;fill-opacity:1;fill-rule:nonzero;stroke:none"
                       id="text272"><tspan
                         x="0"
                         y="0"
                         id="tspan270">1</tspan></text><g
                       id="g274"
                       transform="translate(110.837,16.162)" /></g></g><g
                   id="g276"
                   transform="translate(-78.277,35.108)" /></g></g></g></g></g></g></g></svg>
